<?xml version="1.0" encoding="utf-8"?>
<svg viewBox="1.438 -8.953 184.422 100.547" xmlns="http://www.w3.org/2000/svg">
  <path d="M 5.32 24.026 C 4.907 23.826 4.607 23.623 4.42 23.416 C 4.227 23.209 4.13 22.916 4.13 22.536 C 4.13 22.329 4.167 22.153 4.24 22.006 C 4.313 21.859 4.4 21.723 4.5 21.596 C 4.607 21.463 4.703 21.323 4.79 21.176 C 4.877 21.029 4.92 20.853 4.92 20.646 C 4.92 20.293 4.927 19.883 4.94 19.416 C 4.96 18.949 4.94 18.473 4.88 17.986 C 4.82 17.506 4.71 17.053 4.55 16.626 C 4.39 16.199 4.12 15.856 3.74 15.596 C 3.827 15.563 3.963 15.453 4.15 15.266 C 4.343 15.073 4.47 14.946 4.53 14.886 L 4.53 14.806 C 4.53 14.806 4.53 14.789 4.53 14.756 C 4.53 14.729 4.53 14.699 4.53 14.666 C 4.53 14.286 4.433 14.023 4.24 13.876 C 4.047 13.729 3.827 13.629 3.58 13.576 C 3.333 13.516 3.077 13.456 2.81 13.396 C 2.55 13.336 2.36 13.189 2.24 12.956 C 2.56 12.516 3.087 12.136 3.82 11.816 C 4.553 11.489 5.383 11.203 6.31 10.956 C 7.23 10.709 8.197 10.496 9.21 10.316 C 10.217 10.143 11.203 9.989 12.17 9.856 C 13.137 9.723 14.003 9.636 14.77 9.596 C 15.53 9.549 16.13 9.526 16.57 9.526 L 17.58 9.526 C 17.84 9.526 18.183 9.549 18.61 9.596 C 19.037 9.636 19.453 9.679 19.86 9.726 C 20.273 9.773 20.633 9.809 20.94 9.836 C 21.247 9.863 21.4 9.876 21.4 9.876 L 21.8 10.236 L 21.4 10.666 C 18.853 10.759 16.4 10.929 14.04 11.176 C 11.68 11.423 9.27 11.883 6.81 12.556 C 6.783 12.616 6.753 12.736 6.72 12.916 C 6.693 13.089 6.657 13.279 6.61 13.486 C 6.57 13.686 6.533 13.883 6.5 14.076 C 6.473 14.269 6.46 14.393 6.46 14.446 C 6.46 14.506 6.46 14.603 6.46 14.736 C 6.46 14.869 6.467 15.009 6.48 15.156 C 6.493 15.303 6.5 15.433 6.5 15.546 C 6.5 15.666 6.5 15.769 6.5 15.856 C 8.907 15.856 11.28 15.746 13.62 15.526 C 15.967 15.306 18.34 15.196 20.74 15.196 C 20.92 15.196 21.097 15.196 21.27 15.196 C 21.443 15.196 21.597 15.219 21.73 15.266 C 21.863 15.306 21.973 15.393 22.06 15.526 C 22.147 15.659 22.19 15.843 22.19 16.076 C 22.19 16.223 21.833 16.429 21.12 16.696 C 20.4 16.956 19.497 17.256 18.41 17.596 C 17.33 17.929 16.153 18.303 14.88 18.716 C 13.6 19.123 12.42 19.546 11.34 19.986 C 10.253 20.426 9.353 20.879 8.64 21.346 C 7.92 21.819 7.56 22.276 7.56 22.716 L 7.56 22.846 C 7.56 22.846 7.56 22.859 7.56 22.886 C 7.587 22.919 7.66 22.986 7.78 23.086 C 7.893 23.186 7.95 23.266 7.95 23.326 C 7.95 23.353 7.967 23.366 8 23.366 L 8 23.456 C 8 23.489 8.013 23.506 8.04 23.506 C 8.04 23.506 8.033 23.513 8.02 23.526 C 8.007 23.539 8 23.559 8 23.586 C 7.967 23.619 7.95 23.649 7.95 23.676 C 7.95 23.709 7.893 23.776 7.78 23.876 C 7.66 23.976 7.587 24.026 7.56 24.026 C 7.527 24.119 7.46 24.266 7.36 24.466 C 7.26 24.673 7.21 24.793 7.21 24.826 C 7.21 25.793 7.377 26.619 7.71 27.306 C 8.05 27.993 8.497 28.549 9.05 28.976 C 9.61 29.403 10.263 29.716 11.01 29.916 C 11.757 30.123 12.54 30.226 13.36 30.226 C 14.5 30.226 15.54 30.066 16.48 29.746 C 17.42 29.419 18.3 28.979 19.12 28.426 C 19.94 27.866 20.723 27.213 21.47 26.466 C 22.217 25.719 22.957 24.906 23.69 24.026 C 23.717 24.026 23.767 23.953 23.84 23.806 C 23.913 23.659 23.993 23.506 24.08 23.346 C 24.167 23.186 24.247 23.026 24.32 22.866 C 24.393 22.706 24.43 22.596 24.43 22.536 C 24.43 22.509 24.44 22.443 24.46 22.336 C 24.473 22.236 24.48 22.156 24.48 22.096 C 24.48 21.923 24.427 21.783 24.32 21.676 C 24.22 21.576 24.097 21.496 23.95 21.436 C 23.803 21.376 23.65 21.339 23.49 21.326 C 23.33 21.313 23.16 21.306 22.98 21.306 C 22.98 20.893 23.17 20.613 23.55 20.466 C 23.937 20.319 24.32 20.246 24.7 20.246 C 25.14 20.246 25.47 20.393 25.69 20.686 C 25.91 20.979 26.02 21.346 26.02 21.786 C 26.02 22.606 25.8 23.436 25.36 24.276 C 24.92 25.109 24.347 25.913 23.64 26.686 C 22.94 27.466 22.127 28.186 21.2 28.846 C 20.28 29.499 19.337 30.069 18.37 30.556 C 17.403 31.043 16.45 31.429 15.51 31.716 C 14.577 32.009 13.727 32.156 12.96 32.156 C 11.673 32.156 10.607 31.946 9.76 31.526 C 8.907 31.099 8.187 30.513 7.6 29.766 C 7.013 29.019 6.553 28.156 6.22 27.176 C 5.88 26.189 5.58 25.139 5.32 24.026 Z M 6.37 16.646 C 6.37 17.259 6.4 17.786 6.46 18.226 C 6.487 18.639 6.523 19.006 6.57 19.326 C 6.617 19.653 6.697 19.816 6.81 19.816 L 7.21 19.816 C 7.237 19.816 7.427 19.749 7.78 19.616 C 8.133 19.483 8.55 19.313 9.03 19.106 C 9.517 18.899 10.013 18.686 10.52 18.466 C 11.033 18.253 11.453 18.086 11.78 17.966 C 11.867 17.939 11.977 17.879 12.11 17.786 C 12.237 17.699 12.39 17.619 12.57 17.546 C 12.743 17.473 12.897 17.393 13.03 17.306 C 13.163 17.219 13.273 17.176 13.36 17.176 C 12.833 17.029 12.263 16.919 11.65 16.846 C 11.03 16.773 10.407 16.723 9.78 16.696 C 9.147 16.663 8.53 16.646 7.93 16.646 C 7.33 16.646 6.81 16.646 6.37 16.646 ZM 32.468 30.626 C 32.468 30.533 32.468 30.376 32.468 30.156 C 32.468 29.936 32.462 29.703 32.448 29.456 C 32.435 29.209 32.428 28.976 32.428 28.756 C 32.428 28.536 32.428 28.366 32.428 28.246 C 32.428 27.399 32.502 26.573 32.648 25.766 C 32.795 24.959 32.962 24.153 33.148 23.346 C 33.342 22.539 33.512 21.726 33.658 20.906 C 33.805 20.086 33.878 19.253 33.878 18.406 C 33.525 18.406 33.108 18.566 32.628 18.886 C 32.142 19.213 31.635 19.579 31.108 19.986 C 30.582 20.399 30.092 20.816 29.638 21.236 C 29.185 21.663 28.838 21.979 28.598 22.186 C 28.598 22.186 28.555 22.186 28.468 22.186 C 28.382 22.186 28.308 22.186 28.248 22.186 C 27.695 22.186 27.418 21.923 27.418 21.396 C 27.418 21.043 27.602 20.669 27.968 20.276 C 28.335 19.876 28.788 19.479 29.328 19.086 C 29.868 18.693 30.455 18.319 31.088 17.966 C 31.715 17.613 32.298 17.283 32.838 16.976 C 33.385 16.669 33.842 16.399 34.208 16.166 C 34.575 15.933 34.758 15.743 34.758 15.596 C 35.018 14.363 35.135 13.336 35.108 12.516 C 35.075 11.696 34.965 11.036 34.778 10.536 C 34.585 10.043 34.322 9.699 33.988 9.506 C 33.648 9.313 33.295 9.233 32.928 9.266 C 32.562 9.293 32.188 9.423 31.808 9.656 C 31.428 9.896 31.108 10.189 30.848 10.536 C 30.642 10.303 30.508 10.106 30.448 9.946 C 30.388 9.786 30.358 9.603 30.358 9.396 C 31.032 8.723 31.698 8.299 32.358 8.126 C 33.018 7.946 33.642 7.953 34.228 8.146 C 34.815 8.333 35.342 8.663 35.808 9.136 C 36.275 9.603 36.635 10.149 36.888 10.776 C 37.135 11.409 37.252 12.086 37.238 12.806 C 37.225 13.519 37.042 14.213 36.688 14.886 C 36.748 14.859 36.865 14.803 37.038 14.716 C 37.218 14.629 37.408 14.549 37.608 14.476 C 37.815 14.403 38.015 14.329 38.208 14.256 C 38.395 14.183 38.532 14.129 38.618 14.096 L 38.758 14.096 L 38.978 14.096 C 39.005 14.096 39.042 14.193 39.088 14.386 C 39.128 14.573 39.185 14.793 39.258 15.046 C 39.332 15.293 39.398 15.513 39.458 15.706 C 39.518 15.893 39.548 16.003 39.548 16.036 L 36.288 17.566 C 36.262 17.599 36.168 17.916 36.008 18.516 C 35.848 19.116 35.665 19.819 35.458 20.626 C 35.252 21.433 35.045 22.266 34.838 23.126 C 34.638 23.993 34.492 24.689 34.398 25.216 C 34.345 25.336 34.295 25.563 34.248 25.896 C 34.208 26.236 34.172 26.589 34.138 26.956 C 34.112 27.323 34.082 27.673 34.048 28.006 C 34.022 28.346 34.008 28.573 34.008 28.686 C 34.008 28.866 34.022 29.073 34.048 29.306 C 34.082 29.539 34.135 29.749 34.208 29.936 C 34.282 30.129 34.392 30.293 34.538 30.426 C 34.685 30.559 34.875 30.626 35.108 30.626 C 35.955 30.626 36.708 30.456 37.368 30.116 C 38.028 29.783 38.608 29.409 39.108 28.996 C 39.602 28.583 40.048 28.203 40.448 27.856 C 40.842 27.503 41.198 27.326 41.518 27.326 C 41.578 27.326 41.662 27.333 41.768 27.346 C 41.868 27.359 41.918 27.383 41.918 27.416 C 41.832 28.263 41.588 28.986 41.188 29.586 C 40.795 30.186 40.312 30.679 39.738 31.066 C 39.172 31.446 38.505 31.723 37.738 31.896 C 36.978 32.069 36.158 32.156 35.278 32.156 C 35.018 32.156 34.725 32.143 34.398 32.116 C 34.078 32.089 33.788 32.016 33.528 31.896 C 33.262 31.776 33.032 31.616 32.838 31.416 C 32.652 31.209 32.528 30.946 32.468 30.626 ZM 42.753 26.006 L 41.693 26.626 C 41.486 26.739 41.326 26.766 41.213 26.706 C 41.093 26.653 41.013 26.566 40.973 26.446 C 40.926 26.333 40.896 26.193 40.883 26.026 C 40.869 25.866 40.863 25.756 40.863 25.696 C 40.863 25.116 40.936 24.759 41.083 24.626 C 41.229 24.493 41.419 24.403 41.653 24.356 C 41.886 24.316 42.136 24.253 42.403 24.166 C 42.663 24.073 42.909 23.793 43.143 23.326 C 43.496 22.593 43.813 21.823 44.093 21.016 C 44.373 20.216 44.716 19.463 45.123 18.756 C 45.536 18.056 46.056 17.486 46.683 17.046 C 47.316 16.606 48.189 16.386 49.303 16.386 C 49.476 16.386 49.673 16.399 49.893 16.426 C 50.113 16.459 50.316 16.513 50.503 16.586 C 50.696 16.659 50.859 16.776 50.993 16.936 C 51.119 17.096 51.183 17.306 51.183 17.566 C 51.183 18.186 51.029 18.736 50.723 19.216 C 50.416 19.703 50.036 20.143 49.583 20.536 C 49.129 20.929 48.639 21.303 48.113 21.656 C 47.586 22.009 47.103 22.346 46.663 22.666 C 46.223 22.993 45.849 23.329 45.543 23.676 C 45.236 24.029 45.083 24.413 45.083 24.826 L 45.083 29.036 C 45.083 29.363 45.206 29.619 45.453 29.806 C 45.699 29.999 45.986 30.153 46.313 30.266 C 46.633 30.386 46.969 30.476 47.323 30.536 C 47.669 30.596 47.933 30.626 48.113 30.626 C 48.813 30.626 49.516 30.499 50.223 30.246 C 50.923 29.999 51.603 29.686 52.263 29.306 C 52.923 28.926 53.546 28.509 54.133 28.056 C 54.719 27.596 55.276 27.163 55.803 26.756 C 55.976 26.609 56.129 26.456 56.263 26.296 C 56.396 26.136 56.529 25.983 56.663 25.836 C 56.789 25.689 56.936 25.563 57.103 25.456 C 57.263 25.356 57.473 25.276 57.733 25.216 C 57.733 25.243 57.733 25.303 57.733 25.396 C 57.733 25.483 57.733 25.556 57.733 25.616 C 57.733 25.849 57.713 26.053 57.673 26.226 C 57.626 26.399 57.516 26.576 57.343 26.756 C 56.696 27.489 56.006 28.176 55.273 28.816 C 54.539 29.463 53.763 30.036 52.943 30.536 C 52.123 31.036 51.259 31.429 50.353 31.716 C 49.446 32.009 48.479 32.156 47.453 32.156 C 46.426 32.156 45.636 32.009 45.083 31.716 C 44.523 31.429 44.089 31.006 43.783 30.446 C 43.476 29.893 43.263 29.233 43.143 28.466 C 43.029 27.706 42.899 26.886 42.753 26.006 Z M 47.363 19.816 C 47.363 19.756 47.313 19.763 47.213 19.836 C 47.106 19.909 46.989 20.003 46.863 20.116 C 46.729 20.236 46.633 20.346 46.573 20.446 C 46.513 20.553 46.513 20.606 46.573 20.606 C 46.719 20.633 46.896 20.543 47.103 20.336 C 47.309 20.136 47.396 19.963 47.363 19.816 ZM 58.212 30.756 L 58.212 30.626 C 58.505 29.453 58.718 28.389 58.852 27.436 C 58.985 26.483 59.072 25.553 59.112 24.646 C 59.158 23.739 59.175 22.786 59.162 21.786 C 59.148 20.793 59.142 19.666 59.142 18.406 C 58.668 18.406 58.322 18.436 58.102 18.496 C 57.882 18.549 57.728 18.613 57.642 18.686 C 57.555 18.759 57.498 18.843 57.472 18.936 C 57.438 19.023 57.385 19.103 57.312 19.176 C 57.238 19.249 57.102 19.316 56.902 19.376 C 56.695 19.429 56.372 19.456 55.932 19.456 C 55.665 19.456 55.475 19.356 55.362 19.156 C 55.242 18.949 55.182 18.713 55.182 18.446 C 55.182 18.213 55.335 17.966 55.642 17.706 C 55.948 17.439 56.315 17.173 56.742 16.906 C 57.168 16.646 57.608 16.429 58.062 16.256 C 58.515 16.076 58.902 15.986 59.222 15.986 C 59.342 15.986 59.512 16.039 59.732 16.146 C 59.952 16.246 60.165 16.376 60.372 16.536 C 60.572 16.696 60.738 16.866 60.872 17.046 C 61.005 17.219 61.072 17.393 61.072 17.566 L 61.072 23.676 C 61.365 23.236 61.835 22.636 62.482 21.876 C 63.122 21.116 63.838 20.363 64.632 19.616 C 65.425 18.869 66.232 18.216 67.052 17.656 C 67.872 17.103 68.602 16.826 69.242 16.826 C 70.122 16.826 70.738 17.109 71.092 17.676 C 71.445 18.249 71.622 18.963 71.622 19.816 C 71.268 19.816 70.988 19.756 70.782 19.636 C 70.575 19.516 70.392 19.383 70.232 19.236 C 70.072 19.089 69.905 18.966 69.732 18.866 C 69.552 18.766 69.315 18.716 69.022 18.716 C 68.088 18.889 67.212 19.356 66.392 20.116 C 65.572 20.883 64.815 21.776 64.122 22.796 C 63.435 23.823 62.822 24.909 62.282 26.056 C 61.742 27.196 61.265 28.236 60.852 29.176 C 60.445 30.109 60.115 30.869 59.862 31.456 C 59.615 32.043 59.462 32.276 59.402 32.156 C 59.108 32.156 58.838 32.019 58.592 31.746 C 58.338 31.466 58.212 31.136 58.212 30.756 ZM 75.968 31.766 L 75.968 29.036 C 76.028 28.803 76.114 28.416 76.228 27.876 C 76.348 27.336 76.471 26.729 76.598 26.056 C 76.731 25.376 76.864 24.656 76.998 23.896 C 77.131 23.136 77.264 22.419 77.398 21.746 C 77.524 21.073 77.634 20.456 77.728 19.896 C 77.814 19.343 77.871 18.933 77.898 18.666 C 77.931 18.553 77.931 18.379 77.898 18.146 C 77.871 17.906 77.841 17.639 77.808 17.346 C 77.781 17.053 77.754 16.789 77.728 16.556 C 77.694 16.323 77.678 16.149 77.678 16.036 C 77.591 16.036 77.444 16.006 77.238 15.946 C 77.031 15.886 76.818 15.833 76.598 15.786 C 76.384 15.746 76.188 15.703 76.008 15.656 C 75.834 15.616 75.704 15.596 75.618 15.596 C 74.911 15.856 74.391 16.186 74.058 16.586 C 73.718 16.979 73.408 17.366 73.128 17.746 C 72.854 18.126 72.524 18.456 72.138 18.736 C 71.758 19.016 71.201 19.156 70.468 19.156 C 70.208 19.156 70.018 19.053 69.898 18.846 C 69.784 18.639 69.728 18.406 69.728 18.146 L 69.728 17.966 C 70.368 17.233 70.974 16.603 71.548 16.076 C 72.121 15.549 72.728 15.103 73.368 14.736 C 74.014 14.369 74.718 14.099 75.478 13.926 C 76.244 13.746 77.124 13.656 78.118 13.656 C 78.558 13.656 78.888 13.736 79.108 13.896 C 79.328 14.063 79.498 14.269 79.618 14.516 C 79.731 14.763 79.794 15.049 79.808 15.376 C 79.821 15.696 79.828 16.046 79.828 16.426 C 79.828 17.219 79.748 18.003 79.588 18.776 C 79.428 19.556 79.254 20.333 79.068 21.106 C 78.874 21.886 78.691 22.663 78.518 23.436 C 78.338 24.216 78.248 25.016 78.248 25.836 L 78.248 26.006 C 78.334 25.773 78.524 25.386 78.818 24.846 C 79.111 24.299 79.421 23.719 79.748 23.106 C 80.068 22.493 80.381 21.916 80.688 21.376 C 80.994 20.829 81.208 20.453 81.328 20.246 C 81.354 20.219 81.458 20.096 81.638 19.876 C 81.811 19.656 82.021 19.399 82.268 19.106 C 82.521 18.813 82.771 18.529 83.018 18.256 C 83.264 17.976 83.478 17.746 83.658 17.566 C 83.831 17.333 84.044 17.086 84.298 16.826 C 84.544 16.559 84.808 16.309 85.088 16.076 C 85.361 15.843 85.654 15.646 85.968 15.486 C 86.274 15.319 86.588 15.236 86.908 15.236 C 87.174 15.236 87.371 15.339 87.498 15.546 C 87.631 15.753 87.728 16.003 87.788 16.296 C 87.848 16.589 87.878 16.889 87.878 17.196 C 87.878 17.503 87.878 17.759 87.878 17.966 C 87.878 18.846 87.774 19.726 87.568 20.606 C 87.361 21.479 87.141 22.349 86.908 23.216 C 86.674 24.083 86.448 24.956 86.228 25.836 C 86.008 26.709 85.898 27.586 85.898 28.466 C 85.898 28.846 85.958 29.169 86.078 29.436 C 86.191 29.696 86.454 29.826 86.868 29.826 C 87.394 29.826 87.878 29.683 88.318 29.396 C 88.758 29.103 89.174 28.786 89.568 28.446 C 89.961 28.113 90.358 27.799 90.758 27.506 C 91.151 27.213 91.598 27.066 92.098 27.066 L 92.098 27.896 C 92.098 27.929 92.024 28.016 91.878 28.156 C 91.731 28.303 91.554 28.479 91.348 28.686 C 91.141 28.893 90.928 29.099 90.708 29.306 C 90.488 29.513 90.304 29.686 90.158 29.826 C 89.924 30.033 89.661 30.253 89.368 30.486 C 89.074 30.726 88.774 30.939 88.468 31.126 C 88.161 31.319 87.831 31.479 87.478 31.606 C 87.124 31.739 86.788 31.806 86.468 31.806 C 86.028 31.806 85.668 31.683 85.388 31.436 C 85.114 31.189 84.904 30.883 84.758 30.516 C 84.611 30.149 84.508 29.759 84.448 29.346 C 84.388 28.939 84.358 28.573 84.358 28.246 C 84.358 27.366 84.438 26.496 84.598 25.636 C 84.758 24.769 84.928 23.919 85.108 23.086 C 85.281 22.253 85.441 21.409 85.588 20.556 C 85.734 19.709 85.808 18.846 85.808 17.966 L 85.548 17.966 C 85.514 17.966 85.411 18.053 85.238 18.226 C 85.064 18.406 84.851 18.613 84.598 18.846 C 84.351 19.079 84.111 19.329 83.878 19.596 C 83.644 19.856 83.438 20.073 83.258 20.246 C 83.111 20.426 82.951 20.639 82.778 20.886 C 82.604 21.139 82.428 21.409 82.248 21.696 C 82.074 21.989 81.908 22.276 81.748 22.556 C 81.581 22.836 81.441 23.093 81.328 23.326 C 81.241 23.533 81.094 23.839 80.888 24.246 C 80.681 24.659 80.454 25.129 80.208 25.656 C 79.954 26.183 79.691 26.739 79.418 27.326 C 79.138 27.913 78.874 28.469 78.628 28.996 C 78.374 29.523 78.148 29.993 77.948 30.406 C 77.741 30.813 77.594 31.119 77.508 31.326 C 77.474 31.439 77.354 31.593 77.148 31.786 C 76.948 31.979 76.818 32.089 76.758 32.116 C 76.698 32.143 76.668 32.156 76.668 32.156 L 76.538 32.156 L 76.448 32.156 C 76.421 32.156 76.391 32.143 76.358 32.116 C 76.304 32.089 76.224 32.029 76.118 31.936 C 76.018 31.849 75.968 31.793 75.968 31.766 ZM 100.788 26.756 C 100.348 27.283 99.845 27.839 99.278 28.426 C 98.705 29.013 98.088 29.553 97.428 30.046 C 96.768 30.546 96.081 30.966 95.368 31.306 C 94.648 31.639 93.908 31.806 93.148 31.806 C 91.595 31.806 90.818 31.059 90.818 29.566 C 90.818 28.953 91.075 28.139 91.588 27.126 C 92.101 26.119 92.768 25.059 93.588 23.946 C 94.408 22.833 95.315 21.756 96.308 20.716 C 97.301 19.676 98.298 18.809 99.298 18.116 C 100.291 17.429 101.208 16.999 102.048 16.826 C 102.881 16.646 103.561 16.893 104.088 17.566 C 104.088 18.359 104.028 19.153 103.908 19.946 C 103.795 20.733 103.678 21.516 103.558 22.296 C 103.445 23.069 103.328 23.839 103.208 24.606 C 103.088 25.366 103.028 26.139 103.028 26.926 C 103.028 27.106 103.051 27.379 103.098 27.746 C 103.145 28.113 103.218 28.479 103.318 28.846 C 103.418 29.213 103.558 29.533 103.738 29.806 C 103.911 30.086 104.145 30.226 104.438 30.226 C 105.138 30.226 105.718 30.139 106.178 29.966 C 106.631 29.786 107.025 29.573 107.358 29.326 C 107.698 29.079 107.991 28.793 108.238 28.466 C 108.485 28.146 108.748 27.826 109.028 27.506 C 109.308 27.179 109.625 26.869 109.978 26.576 C 110.325 26.283 110.778 26.049 111.338 25.876 C 111.338 25.876 111.338 25.919 111.338 26.006 C 111.338 26.093 111.338 26.166 111.338 26.226 C 111.338 26.959 111.118 27.686 110.678 28.406 C 110.238 29.119 109.681 29.756 109.008 30.316 C 108.335 30.869 107.581 31.316 106.748 31.656 C 105.908 31.989 105.095 32.156 104.308 32.156 C 103.635 32.156 103.091 31.966 102.678 31.586 C 102.271 31.206 101.941 30.753 101.688 30.226 C 101.441 29.699 101.258 29.119 101.138 28.486 C 101.025 27.859 100.908 27.283 100.788 26.756 Z M 101.578 20.996 C 101.871 20.029 101.981 19.369 101.908 19.016 C 101.835 18.669 101.625 18.533 101.278 18.606 C 100.925 18.679 100.468 18.926 99.908 19.346 C 99.355 19.773 98.755 20.286 98.108 20.886 C 97.468 21.486 96.825 22.153 96.178 22.886 C 95.531 23.619 94.931 24.316 94.378 24.976 C 93.818 25.636 93.361 26.229 93.008 26.756 C 92.661 27.283 92.445 27.663 92.358 27.896 C 92.178 28.569 92.155 29.083 92.288 29.436 C 92.421 29.789 92.625 30.029 92.898 30.156 C 93.178 30.289 93.488 30.313 93.828 30.226 C 94.161 30.139 94.445 30.006 94.678 29.826 C 95.178 29.393 95.808 28.803 96.568 28.056 C 97.335 27.303 98.075 26.503 98.788 25.656 C 99.508 24.809 100.131 23.966 100.658 23.126 C 101.185 22.293 101.491 21.583 101.578 20.996 ZM 109.751 28.866 C 109.751 28.686 109.941 28.539 110.321 28.426 C 110.701 28.306 111.134 28.159 111.621 27.986 C 112.101 27.813 112.584 27.599 113.071 27.346 C 113.551 27.099 113.881 26.786 114.061 26.406 C 114.001 24.999 114.014 23.666 114.101 22.406 C 114.187 21.146 114.334 19.899 114.541 18.666 C 114.747 17.439 115.004 16.203 115.311 14.956 C 115.617 13.709 115.961 12.399 116.341 11.026 C 116.281 10.733 116.347 10.276 116.541 9.656 C 116.734 9.043 116.991 8.443 117.311 7.856 C 117.631 7.269 117.991 6.749 118.391 6.296 C 118.784 5.843 119.141 5.616 119.461 5.616 C 119.814 5.616 120.071 5.806 120.231 6.186 C 120.391 6.566 120.501 7.006 120.561 7.506 C 120.621 8.006 120.637 8.513 120.611 9.026 C 120.577 9.539 120.561 9.926 120.561 10.186 C 120.561 11.679 120.474 13.123 120.301 14.516 C 120.121 15.909 119.847 17.263 119.481 18.576 C 119.121 19.896 118.674 21.203 118.141 22.496 C 117.614 23.783 117.014 25.086 116.341 26.406 C 116.341 26.406 116.334 26.449 116.321 26.536 C 116.307 26.623 116.301 26.696 116.301 26.756 C 116.327 27.809 116.634 28.549 117.221 28.976 C 117.807 29.403 118.504 29.636 119.311 29.676 C 120.117 29.723 120.951 29.629 121.811 29.396 C 122.677 29.156 123.387 28.919 123.941 28.686 L 124.341 29.036 C 124.194 29.303 123.981 29.576 123.701 29.856 C 123.427 30.129 123.127 30.376 122.801 30.596 C 122.481 30.816 122.167 30.993 121.861 31.126 C 121.554 31.259 121.311 31.326 121.131 31.326 C 120.371 31.326 119.711 31.296 119.151 31.236 C 118.597 31.176 118.087 31.059 117.621 30.886 C 117.147 30.713 116.691 30.449 116.251 30.096 C 115.817 29.743 115.334 29.273 114.801 28.686 L 114.451 28.686 C 114.191 28.919 113.951 29.103 113.731 29.236 C 113.511 29.369 113.254 29.466 112.961 29.526 C 112.667 29.586 112.337 29.623 111.971 29.636 C 111.604 29.649 111.187 29.656 110.721 29.656 C 110.394 29.656 110.151 29.606 109.991 29.506 C 109.831 29.399 109.751 29.186 109.751 28.866 Z M 119.021 9.526 C 118.434 10.319 117.944 11.213 117.551 12.206 C 117.157 13.206 116.844 14.233 116.611 15.286 C 116.371 16.339 116.194 17.409 116.081 18.496 C 115.961 19.576 115.901 20.616 115.901 21.616 C 115.901 21.669 115.907 21.799 115.921 22.006 C 115.941 22.213 115.951 22.426 115.951 22.646 C 115.951 22.866 115.957 23.079 115.971 23.286 C 115.984 23.486 115.991 23.616 115.991 23.676 C 116.017 23.649 116.077 23.593 116.171 23.506 C 116.257 23.413 116.314 23.353 116.341 23.326 L 116.341 22.886 C 116.781 21.919 117.171 20.983 117.511 20.076 C 117.844 19.169 118.127 18.253 118.361 17.326 C 118.601 16.406 118.777 15.463 118.891 14.496 C 119.011 13.529 119.071 12.489 119.071 11.376 C 119.071 11.316 119.071 11.189 119.071 10.996 C 119.071 10.809 119.071 10.619 119.071 10.426 C 119.071 10.239 119.061 10.056 119.041 9.876 C 119.027 9.703 119.021 9.586 119.021 9.526 Z" transform="matrix(1, 0, 0, 1, 0, 0)" style="fill: rgb(255, 255, 255); white-space: pre;"/>
  <path d="M 72.863 74.582 C 72.863 73.935 72.88 73.245 72.913 72.512 C 72.94 71.779 73.02 71.039 73.153 70.292 C 73.286 69.545 73.483 68.829 73.743 68.142 C 74.01 67.455 74.363 66.849 74.803 66.322 C 75.096 65.995 75.57 65.562 76.223 65.022 C 76.883 64.482 77.566 63.902 78.273 63.282 C 78.973 62.669 79.596 62.075 80.143 61.502 C 80.683 60.935 80.953 60.432 80.953 59.992 C 80.953 59.905 80.946 59.742 80.933 59.502 C 80.913 59.269 80.903 59.109 80.903 59.022 C 80.556 58.962 80.046 58.889 79.373 58.802 C 78.7 58.715 77.936 58.605 77.083 58.472 C 76.236 58.339 75.336 58.209 74.383 58.082 C 73.43 57.949 72.53 57.815 71.683 57.682 C 70.83 57.549 70.066 57.439 69.393 57.352 C 68.72 57.265 68.206 57.192 67.853 57.132 C 67.68 57.105 67.36 57.069 66.893 57.022 C 66.42 56.982 65.92 56.939 65.393 56.892 C 64.866 56.845 64.37 56.809 63.903 56.782 C 63.43 56.755 63.093 56.742 62.893 56.742 C 62.686 56.682 62.56 56.572 62.513 56.412 C 62.473 56.245 62.453 56.075 62.453 55.902 C 62.453 55.642 62.496 55.489 62.583 55.442 C 62.67 55.395 62.903 55.329 63.283 55.242 C 63.43 55.155 63.803 55.025 64.403 54.852 C 65.003 54.672 65.65 54.472 66.343 54.252 C 67.03 54.032 67.673 53.829 68.273 53.642 C 68.873 53.449 69.26 53.322 69.433 53.262 C 69.873 53.115 70.423 52.919 71.083 52.672 C 71.743 52.425 72.426 52.132 73.133 51.792 C 73.833 51.459 74.536 51.092 75.243 50.692 C 75.943 50.299 76.58 49.869 77.153 49.402 C 77.72 48.929 78.18 48.445 78.533 47.952 C 78.886 47.452 79.063 46.922 79.063 46.362 C 79.063 45.635 79.02 44.919 78.933 44.212 C 78.846 43.512 78.743 42.802 78.623 42.082 C 78.503 41.362 78.4 40.652 78.313 39.952 C 78.226 39.245 78.183 38.542 78.183 37.842 C 78.183 37.549 78.213 37.269 78.273 37.002 C 78.333 36.742 78.583 36.539 79.023 36.392 C 79.576 36.745 79.986 37.179 80.253 37.692 C 80.513 38.199 80.71 38.762 80.843 39.382 C 80.976 39.995 81.093 40.609 81.193 41.222 C 81.293 41.842 81.463 42.415 81.703 42.942 L 83.013 60.562 L 85.523 60.562 C 85.403 60.769 85.22 60.935 84.973 61.062 C 84.726 61.195 84.47 61.315 84.203 61.422 C 83.943 61.522 83.716 61.639 83.523 61.772 C 83.33 61.905 83.233 62.072 83.233 62.272 C 83.233 63.505 83.27 64.745 83.343 65.992 C 83.416 67.232 83.506 68.469 83.613 69.702 C 83.713 70.935 83.806 72.172 83.893 73.412 C 83.98 74.659 84.023 75.899 84.023 77.132 C 84.023 77.479 84.023 77.915 84.023 78.442 C 84.023 78.975 84.016 79.505 84.003 80.032 C 83.99 80.559 83.983 81.019 83.983 81.412 C 83.983 81.805 83.983 82.019 83.983 82.052 C 83.956 82.459 83.926 82.955 83.893 83.542 C 83.866 84.129 83.803 84.752 83.703 85.412 C 83.596 86.072 83.456 86.739 83.283 87.412 C 83.103 88.085 82.883 88.692 82.623 89.232 C 82.356 89.779 82.02 90.242 81.613 90.622 C 81.2 91.002 80.716 91.205 80.163 91.232 C 78.903 90.299 77.81 89.185 76.883 87.892 C 75.963 86.605 75.203 85.229 74.603 83.762 C 74.003 82.295 73.563 80.779 73.283 79.212 C 73.003 77.645 72.863 76.102 72.863 74.582 Z M 74.313 74.232 C 74.313 75.545 74.416 76.885 74.623 78.252 C 74.83 79.612 75.16 80.952 75.613 82.272 C 76.066 83.592 76.666 84.822 77.413 85.962 C 78.16 87.102 79.076 88.112 80.163 88.992 C 80.19 88.992 80.22 88.992 80.253 88.992 C 80.28 88.992 80.306 88.992 80.333 88.992 C 80.626 88.992 80.876 88.815 81.083 88.462 C 81.29 88.115 81.46 87.699 81.593 87.212 C 81.72 86.732 81.82 86.265 81.893 85.812 C 81.966 85.352 82.033 85.005 82.093 84.772 C 82.093 84.599 82.116 84.335 82.163 83.982 C 82.203 83.629 82.246 83.262 82.293 82.882 C 82.333 82.502 82.37 82.165 82.403 81.872 C 82.43 81.579 82.443 81.389 82.443 81.302 C 82.443 81.242 82.443 81.022 82.443 80.642 C 82.443 80.262 82.45 79.822 82.463 79.322 C 82.483 78.829 82.493 78.325 82.493 77.812 C 82.493 77.299 82.493 76.895 82.493 76.602 C 82.493 74.462 82.47 72.302 82.423 70.122 C 82.376 67.935 82.136 65.789 81.703 63.682 C 81.67 63.595 81.61 63.449 81.523 63.242 C 81.436 63.035 81.363 62.919 81.303 62.892 L 81.263 62.892 C 81.23 62.892 81.2 62.885 81.173 62.872 C 81.14 62.852 81.11 62.842 81.083 62.842 C 80.323 62.842 79.626 63.049 78.993 63.462 C 78.366 63.869 77.803 64.402 77.303 65.062 C 76.803 65.722 76.37 66.479 76.003 67.332 C 75.643 68.179 75.336 69.019 75.083 69.852 C 74.836 70.692 74.646 71.499 74.513 72.272 C 74.38 73.045 74.313 73.699 74.313 74.232 Z M 69.793 55.242 L 69.793 55.902 C 70.553 55.902 71.313 55.945 72.073 56.032 C 72.833 56.119 73.586 56.215 74.333 56.322 C 75.086 56.422 75.836 56.515 76.583 56.602 C 77.33 56.695 78.083 56.742 78.843 56.742 C 79.196 56.742 79.473 56.725 79.673 56.692 C 79.88 56.665 80.16 56.549 80.513 56.342 C 80.513 56.255 80.52 56.072 80.533 55.792 C 80.546 55.512 80.553 55.329 80.553 55.242 C 80.553 55.069 80.546 54.842 80.533 54.562 C 80.52 54.282 80.513 54.115 80.513 54.062 C 80.486 53.735 80.436 53.339 80.363 52.872 C 80.29 52.405 80.206 51.942 80.113 51.482 C 80.026 51.029 79.953 50.642 79.893 50.322 C 79.84 50.002 79.796 49.842 79.763 49.842 L 79.023 49.842 C 77.556 50.862 76.053 51.819 74.513 52.712 C 72.973 53.612 71.4 54.455 69.793 55.242 ZM 86.658 59.862 C 86.658 59.769 86.658 59.612 86.658 59.392 C 86.658 59.172 86.651 58.939 86.638 58.692 C 86.624 58.445 86.618 58.212 86.618 57.992 C 86.618 57.772 86.618 57.602 86.618 57.482 C 86.618 56.662 86.674 55.785 86.788 54.852 C 86.908 53.912 87.084 52.995 87.318 52.102 C 87.551 51.209 87.868 50.345 88.268 49.512 C 88.661 48.672 89.158 47.939 89.758 47.312 C 90.358 46.679 91.054 46.172 91.848 45.792 C 92.634 45.412 93.541 45.222 94.568 45.222 C 95.241 45.222 95.754 45.422 96.108 45.822 C 96.461 46.215 96.701 46.705 96.828 47.292 C 96.961 47.879 97.034 48.492 97.048 49.132 C 97.068 49.779 97.078 50.352 97.078 50.852 C 97.078 51.992 96.961 53.185 96.728 54.432 C 96.488 55.679 96.104 56.812 95.578 57.832 C 95.051 58.859 94.328 59.709 93.408 60.382 C 92.481 61.055 91.331 61.392 89.958 61.392 C 89.544 61.392 89.191 61.379 88.898 61.352 C 88.604 61.325 88.341 61.245 88.108 61.112 C 87.874 60.979 87.641 60.815 87.408 60.622 C 87.174 60.435 86.924 60.182 86.658 59.862 Z M 88.198 59.062 C 88.464 59.329 88.771 59.462 89.118 59.462 C 89.471 59.462 89.808 59.462 90.128 59.462 C 91.241 59.462 92.151 59.175 92.858 58.602 C 93.558 58.035 94.108 57.325 94.508 56.472 C 94.901 55.625 95.178 54.695 95.338 53.682 C 95.498 52.675 95.578 51.732 95.578 50.852 C 95.578 50.439 95.584 49.992 95.598 49.512 C 95.618 49.025 95.574 48.569 95.468 48.142 C 95.368 47.722 95.184 47.372 94.918 47.092 C 94.658 46.812 94.264 46.672 93.738 46.672 C 93.738 47.145 93.678 47.499 93.558 47.732 C 93.444 47.965 93.291 48.125 93.098 48.212 C 92.904 48.299 92.684 48.349 92.438 48.362 C 92.191 48.382 91.928 48.435 91.648 48.522 C 91.368 48.609 91.098 48.739 90.838 48.912 C 90.571 49.092 90.334 49.402 90.128 49.842 C 89.661 51.155 89.214 52.422 88.788 53.642 C 88.368 54.855 88.158 56.135 88.158 57.482 C 88.158 57.569 88.158 57.679 88.158 57.812 C 88.158 57.945 88.164 58.099 88.178 58.272 C 88.191 58.452 88.198 58.609 88.198 58.742 C 88.198 58.869 88.198 58.975 88.198 59.062 ZM 101.77 43.332 C 101.184 43.332 100.774 43.449 100.54 43.682 C 100.307 43.922 100.124 44.172 99.99 44.432 C 99.864 44.699 99.74 44.949 99.62 45.182 C 99.5 45.415 99.28 45.532 98.96 45.532 C 98.607 45.532 98.32 45.465 98.1 45.332 C 97.88 45.199 97.77 44.942 97.77 44.562 C 97.804 44.182 97.95 43.815 98.21 43.462 C 98.477 43.115 98.807 42.802 99.2 42.522 C 99.6 42.242 100.02 42.029 100.46 41.882 C 100.894 41.735 101.33 41.692 101.77 41.752 C 102.184 41.752 102.567 41.782 102.92 41.842 C 103.267 41.902 103.574 42.019 103.84 42.192 C 104.1 42.365 104.304 42.605 104.45 42.912 C 104.597 43.225 104.67 43.629 104.67 44.122 L 104.67 58.672 L 105.42 57.922 C 105.447 57.895 105.587 57.655 105.84 57.202 C 106.087 56.749 106.374 56.212 106.7 55.592 C 107.02 54.979 107.347 54.349 107.68 53.702 C 108.02 53.062 108.294 52.535 108.5 52.122 C 109.174 50.775 109.714 49.465 110.12 48.192 C 110.534 46.919 110.887 45.562 111.18 44.122 C 111.24 43.889 111.38 43.752 111.6 43.712 C 111.814 43.665 111.994 43.642 112.14 43.642 C 112.174 43.642 112.264 43.649 112.41 43.662 C 112.557 43.675 112.66 43.682 112.72 43.682 C 112.72 43.922 112.727 44.275 112.74 44.742 C 112.754 45.209 112.774 45.735 112.8 46.322 C 112.834 46.909 112.864 47.515 112.89 48.142 C 112.924 48.775 112.954 49.385 112.98 49.972 C 113.007 50.559 113.037 51.079 113.07 51.532 C 113.097 51.985 113.11 52.329 113.11 52.562 C 113.11 52.735 113.134 53.052 113.18 53.512 C 113.22 53.965 113.307 54.432 113.44 54.912 C 113.574 55.399 113.757 55.832 113.99 56.212 C 114.224 56.592 114.56 56.782 115 56.782 C 115.414 56.549 115.824 56.269 116.23 55.942 C 116.644 55.622 117.06 55.295 117.48 54.962 C 117.907 54.622 118.334 54.312 118.76 54.032 C 119.187 53.759 119.634 53.549 120.1 53.402 C 120.334 53.549 120.42 53.769 120.36 54.062 C 120.3 54.349 120.14 54.685 119.88 55.072 C 119.614 55.452 119.277 55.839 118.87 56.232 C 118.457 56.625 118.004 56.992 117.51 57.332 C 117.01 57.665 116.504 57.929 115.99 58.122 C 115.477 58.315 115 58.382 114.56 58.322 C 113.714 58.322 113.064 58.059 112.61 57.532 C 112.15 57.005 111.827 56.369 111.64 55.622 C 111.447 54.869 111.337 54.082 111.31 53.262 C 111.284 52.442 111.27 51.739 111.27 51.152 C 110.944 51.152 110.627 51.409 110.32 51.922 C 110.014 52.435 109.7 53.075 109.38 53.842 C 109.054 54.602 108.717 55.422 108.37 56.302 C 108.017 57.175 107.634 57.989 107.22 58.742 C 106.814 59.489 106.384 60.115 105.93 60.622 C 105.477 61.135 104.984 61.392 104.45 61.392 C 104.07 61.392 103.764 61.292 103.53 61.092 C 103.297 60.885 103.12 60.622 103 60.302 C 102.887 59.975 102.814 59.635 102.78 59.282 C 102.754 58.935 102.74 58.599 102.74 58.272 L 102.74 44.472 C 102.74 44.385 102.71 44.279 102.65 44.152 C 102.59 44.019 102.517 43.892 102.43 43.772 C 102.344 43.659 102.244 43.555 102.13 43.462 C 102.01 43.375 101.89 43.332 101.77 43.332 ZM 119.915 59.992 L 119.915 59.862 C 120.208 58.689 120.422 57.625 120.555 56.672 C 120.688 55.719 120.775 54.789 120.815 53.882 C 120.862 52.975 120.878 52.022 120.865 51.022 C 120.852 50.029 120.845 48.902 120.845 47.642 C 120.372 47.642 120.025 47.672 119.805 47.732 C 119.585 47.785 119.432 47.849 119.345 47.922 C 119.258 47.995 119.202 48.079 119.175 48.172 C 119.142 48.259 119.088 48.339 119.015 48.412 C 118.942 48.485 118.805 48.552 118.605 48.612 C 118.398 48.665 118.075 48.692 117.635 48.692 C 117.368 48.692 117.178 48.592 117.065 48.392 C 116.945 48.185 116.885 47.949 116.885 47.682 C 116.885 47.449 117.038 47.202 117.345 46.942 C 117.652 46.675 118.018 46.409 118.445 46.142 C 118.872 45.882 119.312 45.665 119.765 45.492 C 120.218 45.312 120.605 45.222 120.925 45.222 C 121.045 45.222 121.215 45.275 121.435 45.382 C 121.655 45.482 121.868 45.612 122.075 45.772 C 122.275 45.932 122.442 46.102 122.575 46.282 C 122.708 46.455 122.775 46.629 122.775 46.802 L 122.775 52.912 C 123.068 52.472 123.538 51.872 124.185 51.112 C 124.825 50.352 125.542 49.599 126.335 48.852 C 127.128 48.105 127.935 47.452 128.755 46.892 C 129.575 46.339 130.305 46.062 130.945 46.062 C 131.825 46.062 132.442 46.345 132.795 46.912 C 133.148 47.485 133.325 48.199 133.325 49.052 C 132.972 49.052 132.692 48.992 132.485 48.872 C 132.278 48.752 132.095 48.619 131.935 48.472 C 131.775 48.325 131.608 48.202 131.435 48.102 C 131.255 48.002 131.018 47.952 130.725 47.952 C 129.792 48.125 128.915 48.592 128.095 49.352 C 127.275 50.119 126.518 51.012 125.825 52.032 C 125.138 53.059 124.525 54.145 123.985 55.292 C 123.445 56.432 122.968 57.472 122.555 58.412 C 122.148 59.345 121.818 60.105 121.565 60.692 C 121.318 61.279 121.165 61.512 121.105 61.392 C 120.812 61.392 120.542 61.255 120.295 60.982 C 120.042 60.702 119.915 60.372 119.915 59.992 ZM 137.671 61.002 L 137.671 58.272 C 137.731 58.039 137.818 57.652 137.931 57.112 C 138.051 56.572 138.175 55.965 138.301 55.292 C 138.435 54.612 138.568 53.892 138.701 53.132 C 138.835 52.372 138.968 51.655 139.101 50.982 C 139.228 50.309 139.338 49.692 139.431 49.132 C 139.518 48.579 139.575 48.169 139.601 47.902 C 139.635 47.789 139.635 47.615 139.601 47.382 C 139.575 47.142 139.545 46.875 139.511 46.582 C 139.485 46.289 139.458 46.025 139.431 45.792 C 139.398 45.559 139.381 45.385 139.381 45.272 C 139.295 45.272 139.148 45.242 138.941 45.182 C 138.735 45.122 138.521 45.069 138.301 45.022 C 138.088 44.982 137.891 44.939 137.711 44.892 C 137.538 44.852 137.408 44.832 137.321 44.832 C 136.615 45.092 136.095 45.422 135.761 45.822 C 135.421 46.215 135.111 46.602 134.831 46.982 C 134.558 47.362 134.228 47.692 133.841 47.972 C 133.461 48.252 132.905 48.392 132.171 48.392 C 131.911 48.392 131.721 48.289 131.601 48.082 C 131.488 47.875 131.431 47.642 131.431 47.382 L 131.431 47.202 C 132.071 46.469 132.678 45.839 133.251 45.312 C 133.825 44.785 134.431 44.339 135.071 43.972 C 135.718 43.605 136.421 43.335 137.181 43.162 C 137.948 42.982 138.828 42.892 139.821 42.892 C 140.261 42.892 140.591 42.972 140.811 43.132 C 141.031 43.299 141.201 43.505 141.321 43.752 C 141.435 43.999 141.498 44.285 141.511 44.612 C 141.525 44.932 141.531 45.282 141.531 45.662 C 141.531 46.455 141.451 47.239 141.291 48.012 C 141.131 48.792 140.958 49.569 140.771 50.342 C 140.578 51.122 140.395 51.899 140.221 52.672 C 140.041 53.452 139.951 54.252 139.951 55.072 L 139.951 55.242 C 140.038 55.009 140.228 54.622 140.521 54.082 C 140.815 53.535 141.125 52.955 141.451 52.342 C 141.771 51.729 142.085 51.152 142.391 50.612 C 142.698 50.065 142.911 49.689 143.031 49.482 C 143.058 49.455 143.161 49.332 143.341 49.112 C 143.515 48.892 143.725 48.635 143.971 48.342 C 144.225 48.049 144.475 47.765 144.721 47.492 C 144.968 47.212 145.181 46.982 145.361 46.802 C 145.535 46.569 145.748 46.322 146.001 46.062 C 146.248 45.795 146.511 45.545 146.791 45.312 C 147.065 45.079 147.358 44.882 147.671 44.722 C 147.978 44.555 148.291 44.472 148.611 44.472 C 148.878 44.472 149.075 44.575 149.201 44.782 C 149.335 44.989 149.431 45.239 149.491 45.532 C 149.551 45.825 149.581 46.125 149.581 46.432 C 149.581 46.739 149.581 46.995 149.581 47.202 C 149.581 48.082 149.478 48.962 149.271 49.842 C 149.065 50.715 148.845 51.585 148.611 52.452 C 148.378 53.319 148.151 54.192 147.931 55.072 C 147.711 55.945 147.601 56.822 147.601 57.702 C 147.601 58.082 147.661 58.405 147.781 58.672 C 147.895 58.932 148.158 59.062 148.571 59.062 C 149.098 59.062 149.581 58.919 150.021 58.632 C 150.461 58.339 150.878 58.022 151.271 57.682 C 151.665 57.349 152.061 57.035 152.461 56.742 C 152.855 56.449 153.301 56.302 153.801 56.302 L 153.801 57.132 C 153.801 57.165 153.728 57.252 153.581 57.392 C 153.435 57.539 153.258 57.715 153.051 57.922 C 152.845 58.129 152.631 58.335 152.411 58.542 C 152.191 58.749 152.008 58.922 151.861 59.062 C 151.628 59.269 151.365 59.489 151.071 59.722 C 150.778 59.962 150.478 60.175 150.171 60.362 C 149.865 60.555 149.535 60.715 149.181 60.842 C 148.828 60.975 148.491 61.042 148.171 61.042 C 147.731 61.042 147.371 60.919 147.091 60.672 C 146.818 60.425 146.608 60.119 146.461 59.752 C 146.315 59.385 146.211 58.995 146.151 58.582 C 146.091 58.175 146.061 57.809 146.061 57.482 C 146.061 56.602 146.141 55.732 146.301 54.872 C 146.461 54.005 146.631 53.155 146.811 52.322 C 146.985 51.489 147.145 50.645 147.291 49.792 C 147.438 48.945 147.511 48.082 147.511 47.202 L 147.251 47.202 C 147.218 47.202 147.115 47.289 146.941 47.462 C 146.768 47.642 146.555 47.849 146.301 48.082 C 146.055 48.315 145.815 48.565 145.581 48.832 C 145.348 49.092 145.141 49.309 144.961 49.482 C 144.815 49.662 144.655 49.875 144.481 50.122 C 144.308 50.375 144.131 50.645 143.951 50.932 C 143.778 51.225 143.611 51.512 143.451 51.792 C 143.285 52.072 143.145 52.329 143.031 52.562 C 142.945 52.769 142.798 53.075 142.591 53.482 C 142.385 53.895 142.158 54.365 141.911 54.892 C 141.658 55.419 141.395 55.975 141.121 56.562 C 140.841 57.149 140.578 57.705 140.331 58.232 C 140.078 58.759 139.851 59.229 139.651 59.642 C 139.445 60.049 139.298 60.355 139.211 60.562 C 139.178 60.675 139.058 60.829 138.851 61.022 C 138.651 61.215 138.521 61.325 138.461 61.352 C 138.401 61.379 138.371 61.392 138.371 61.392 L 138.241 61.392 L 138.151 61.392 C 138.125 61.392 138.095 61.379 138.061 61.352 C 138.008 61.325 137.928 61.265 137.821 61.172 C 137.721 61.085 137.671 61.029 137.671 61.002 ZM 153.972 55.242 L 152.912 55.862 C 152.705 55.975 152.545 56.002 152.432 55.942 C 152.312 55.889 152.232 55.802 152.192 55.682 C 152.145 55.569 152.115 55.429 152.102 55.262 C 152.088 55.102 152.082 54.992 152.082 54.932 C 152.082 54.352 152.155 53.995 152.302 53.862 C 152.448 53.729 152.638 53.639 152.872 53.592 C 153.105 53.552 153.355 53.489 153.622 53.402 C 153.882 53.309 154.128 53.029 154.362 52.562 C 154.715 51.829 155.032 51.059 155.312 50.252 C 155.592 49.452 155.935 48.699 156.342 47.992 C 156.755 47.292 157.275 46.722 157.902 46.282 C 158.535 45.842 159.408 45.622 160.522 45.622 C 160.695 45.622 160.892 45.635 161.112 45.662 C 161.332 45.695 161.535 45.749 161.722 45.822 C 161.915 45.895 162.078 46.012 162.212 46.172 C 162.338 46.332 162.402 46.542 162.402 46.802 C 162.402 47.422 162.248 47.972 161.942 48.452 C 161.635 48.939 161.255 49.379 160.802 49.772 C 160.348 50.165 159.858 50.539 159.332 50.892 C 158.805 51.245 158.322 51.582 157.882 51.902 C 157.442 52.229 157.068 52.565 156.762 52.912 C 156.455 53.265 156.302 53.649 156.302 54.062 L 156.302 58.272 C 156.302 58.599 156.425 58.855 156.672 59.042 C 156.918 59.235 157.205 59.389 157.532 59.502 C 157.852 59.622 158.188 59.712 158.542 59.772 C 158.888 59.832 159.152 59.862 159.332 59.862 C 160.032 59.862 160.735 59.735 161.442 59.482 C 162.142 59.235 162.822 58.922 163.482 58.542 C 164.142 58.162 164.765 57.745 165.352 57.292 C 165.938 56.832 166.495 56.399 167.022 55.992 C 167.195 55.845 167.348 55.692 167.482 55.532 C 167.615 55.372 167.748 55.219 167.882 55.072 C 168.008 54.925 168.155 54.799 168.322 54.692 C 168.482 54.592 168.692 54.512 168.952 54.452 C 168.952 54.479 168.952 54.539 168.952 54.632 C 168.952 54.719 168.952 54.792 168.952 54.852 C 168.952 55.085 168.932 55.289 168.892 55.462 C 168.845 55.635 168.735 55.812 168.562 55.992 C 167.915 56.725 167.225 57.412 166.492 58.052 C 165.758 58.699 164.982 59.272 164.162 59.772 C 163.342 60.272 162.478 60.665 161.572 60.952 C 160.665 61.245 159.698 61.392 158.672 61.392 C 157.645 61.392 156.855 61.245 156.302 60.952 C 155.742 60.665 155.308 60.242 155.002 59.682 C 154.695 59.129 154.482 58.469 154.362 57.702 C 154.248 56.942 154.118 56.122 153.972 55.242 Z M 158.582 49.052 C 158.582 48.992 158.532 48.999 158.432 49.072 C 158.325 49.145 158.208 49.239 158.082 49.352 C 157.948 49.472 157.852 49.582 157.792 49.682 C 157.732 49.789 157.732 49.842 157.792 49.842 C 157.938 49.869 158.115 49.779 158.322 49.572 C 158.528 49.372 158.615 49.199 158.582 49.052 ZM 165.081 81.302 C 164.907 80.189 164.761 79.019 164.641 77.792 C 164.527 76.559 164.427 75.135 164.341 73.522 C 164.341 73.262 164.347 72.832 164.361 72.232 C 164.374 71.632 164.411 70.955 164.471 70.202 C 164.531 69.455 164.617 68.682 164.731 67.882 C 164.851 67.075 164.991 66.312 165.151 65.592 C 165.311 64.872 165.507 64.242 165.741 63.702 C 165.974 63.162 166.267 62.775 166.621 62.542 L 166.621 62.892 C 166.621 63.772 166.554 64.635 166.421 65.482 C 166.294 66.335 166.164 67.192 166.031 68.052 C 165.897 68.919 165.764 69.792 165.631 70.672 C 165.497 71.545 165.431 72.422 165.431 73.302 C 165.431 73.655 165.454 74.162 165.501 74.822 C 165.547 75.482 165.614 76.205 165.701 76.992 C 165.787 77.785 165.917 78.599 166.091 79.432 C 166.271 80.272 166.507 81.029 166.801 81.702 C 167.094 82.375 167.444 82.922 167.851 83.342 C 168.264 83.769 168.747 83.982 169.301 83.982 C 170.061 83.982 170.831 83.732 171.611 83.232 C 172.384 82.739 173.131 82.089 173.851 81.282 C 174.571 80.475 175.237 79.565 175.851 78.552 C 176.464 77.545 177.034 76.529 177.561 75.502 C 178.087 74.475 178.527 73.502 178.881 72.582 C 179.234 71.655 179.497 70.855 179.671 70.182 C 179.851 69.215 180.027 68.199 180.201 67.132 C 180.374 66.059 180.544 64.959 180.711 63.832 C 180.871 62.705 181.001 61.585 181.101 60.472 C 181.201 59.359 181.251 58.245 181.251 57.132 C 181.251 57.105 181.251 57.019 181.251 56.872 C 181.251 56.725 181.244 56.572 181.231 56.412 C 181.217 56.245 181.211 56.089 181.211 55.942 C 181.211 55.795 181.211 55.695 181.211 55.642 C 180.804 56.082 180.371 56.572 179.911 57.112 C 179.457 57.652 178.967 58.159 178.441 58.632 C 177.914 59.099 177.351 59.492 176.751 59.812 C 176.151 60.139 175.497 60.302 174.791 60.302 C 174.237 60.302 173.764 60.125 173.371 59.772 C 172.971 59.419 172.647 58.985 172.401 58.472 C 172.154 57.959 171.964 57.409 171.831 56.822 C 171.697 56.235 171.631 55.709 171.631 55.242 C 171.604 54.982 171.574 54.505 171.541 53.812 C 171.514 53.125 171.477 52.395 171.431 51.622 C 171.391 50.842 171.347 50.109 171.301 49.422 C 171.261 48.735 171.241 48.245 171.241 47.952 L 170.841 47.552 C 170.634 47.672 170.371 47.849 170.051 48.082 C 169.731 48.315 169.387 48.535 169.021 48.742 C 168.654 48.949 168.294 49.132 167.941 49.292 C 167.587 49.452 167.281 49.532 167.021 49.532 C 166.667 49.532 166.381 49.409 166.161 49.162 C 165.941 48.909 165.831 48.635 165.831 48.342 C 165.831 48.195 165.971 47.992 166.251 47.732 C 166.531 47.465 166.881 47.192 167.301 46.912 C 167.727 46.639 168.211 46.355 168.751 46.062 C 169.297 45.769 169.817 45.505 170.311 45.272 C 170.811 45.032 171.264 44.832 171.671 44.672 C 172.084 44.512 172.377 44.432 172.551 44.432 C 172.671 44.432 172.864 44.445 173.131 44.472 C 173.391 44.505 173.521 44.639 173.521 44.872 L 173.521 55.242 C 173.521 55.422 173.551 55.679 173.611 56.012 C 173.671 56.352 173.757 56.695 173.871 57.042 C 173.991 57.395 174.154 57.695 174.361 57.942 C 174.561 58.195 174.794 58.322 175.061 58.322 C 175.207 58.322 175.397 58.279 175.631 58.192 C 175.864 58.099 176.091 57.995 176.311 57.882 C 176.531 57.762 176.727 57.635 176.901 57.502 C 177.081 57.375 177.227 57.252 177.341 57.132 C 178.341 56.252 179.257 55.272 180.091 54.192 C 180.924 53.105 181.547 51.919 181.961 50.632 C 181.987 50.545 182.037 50.345 182.111 50.032 C 182.184 49.725 182.257 49.389 182.331 49.022 C 182.404 48.655 182.484 48.305 182.571 47.972 C 182.664 47.632 182.711 47.375 182.711 47.202 C 182.737 46.995 182.757 46.762 182.771 46.502 C 182.784 46.235 182.821 45.979 182.881 45.732 C 182.941 45.479 183.044 45.265 183.191 45.092 C 183.337 44.919 183.571 44.832 183.891 44.832 C 184.331 44.832 184.574 44.962 184.621 45.222 C 184.661 45.489 184.681 45.795 184.681 46.142 C 184.681 46.529 184.651 46.912 184.591 47.292 C 184.537 47.672 184.474 48.045 184.401 48.412 C 184.327 48.779 184.274 49.145 184.241 49.512 C 184.214 49.879 184.231 50.252 184.291 50.632 C 183.964 56.139 183.281 61.059 182.241 65.392 C 181.201 69.732 179.971 73.389 178.551 76.362 C 177.131 79.335 175.637 81.582 174.071 83.102 C 172.504 84.629 171.031 85.319 169.651 85.172 C 169.157 85.172 168.667 85.062 168.181 84.842 C 167.701 84.622 167.254 84.322 166.841 83.942 C 166.434 83.562 166.074 83.145 165.761 82.692 C 165.454 82.232 165.227 81.769 165.081 81.302 Z" transform="matrix(1, 0, 0, 1, 0, 0)" style="fill: rgb(255, 255, 255); white-space: pre;"/>
</svg>